<?xml version="1.0" encoding="utf-8"?>
<!-- Generator: Adobe Illustrator 27.7.0, SVG Export Plug-In . SVG Version: 6.00 Build 0)  -->
<svg version="1.1" id="圖層_1" xmlns="http://www.w3.org/2000/svg" xmlns:xlink="http://www.w3.org/1999/xlink" x="0px" y="0px"
	 viewBox="0 0 16 16" style="enable-background:new 0 0 16 16;" xml:space="preserve">
<style type="text/css">
	.st0{fill:#FFFFFF;}
</style>
<path class="st0" d="M0,3c0-1.1,0.9-2,2-2l0,0h12c1.1,0,2,0.9,2,2v10c0,1.1-0.9,2-2,2H2c-1.1,0-2-0.9-2-2V3z M1,12v1
	c0,0.6,0.4,1,1,1h12c0.6,0,1-0.4,1-1V9.5l-3.8-1.9c-0.2-0.1-0.4-0.1-0.6,0.1l-3.7,3.7L4.3,9.6c-0.2-0.1-0.5-0.1-0.7,0L1,12z M6,5.5
	C6,4.7,5.3,4,4.5,4S3,4.7,3,5.5S3.7,7,4.5,7S6,6.3,6,5.5z"/>
</svg>
